<svg width="25" height="22" viewBox="0 0 25 22" fill="none" xmlns="http://www.w3.org/2000/svg">
<path d="M12.4999 16.0562C10.0699 16.0562 8.09995 14.2452 8.09995 12.0113C8.09995 9.77729 10.0699 7.96631 12.4999 7.96631C14.93 7.96631 16.8999 9.77729 16.8999 12.0113C16.8999 14.2452 14.93 16.0562 12.4999 16.0562Z" stroke="#ED2C41" stroke-width="1.5" stroke-linecap="round" stroke-linejoin="round"/>
<path d="M12.5 4.93264C11.285 4.93264 10.3 4.02715 10.3 2.91017C10.3 1.79319 11.285 0.887695 12.5 0.887695C13.715 0.887695 14.7 1.79319 14.7 2.91017C14.7 4.02715 13.715 4.93264 12.5 4.93264Z" stroke="#ED2C41" stroke-width="1.5" stroke-linecap="round" stroke-linejoin="round"/>
<path d="M21.3 21.1124C20.085 21.1124 19.1 20.207 19.1 19.09C19.1 17.973 20.085 17.0675 21.3 17.0675C22.515 17.0675 23.5 17.973 23.5 19.09C23.5 20.207 22.515 21.1124 21.3 21.1124Z" stroke="#ED2C41" stroke-width="1.5" stroke-linecap="round" stroke-linejoin="round"/>
<path d="M3.69995 21.1124C2.48492 21.1124 1.49995 20.207 1.49995 19.09C1.49995 17.973 2.48492 17.0675 3.69995 17.0675C4.91497 17.0675 5.89995 17.973 5.89995 19.09C5.89995 20.207 4.91497 21.1124 3.69995 21.1124Z" stroke="#ED2C41" stroke-width="1.5" stroke-linecap="round" stroke-linejoin="round"/>
<path d="M12.4999 7.96633V4.93262M5.34995 17.5731L9.19995 15.045M19.6499 17.5731L15.7999 15.045" stroke="#ED2C41" stroke-width="1.5" stroke-linecap="round" stroke-linejoin="round"/>
</svg>
